
<svg width="48" height="48" viewBox="0 0 48 48" fill="none" xmlns="http://www.w3.org/2000/svg">
  <circle cx="24" cy="24" r="20" fill="#86B49C"/>
  <path d="M24 12C17.3726 12 12 17.3726 12 24C12 30.6274 17.3726 36 24 36C30.6274 36 36 30.6274 36 24C36 17.3726 30.6274 12 24 12ZM24 34C18.4771 34 14 29.5229 14 24C14 18.4771 18.4771 14 24 14C29.5229 14 34 18.4771 34 24C34 29.5229 29.5229 34 24 34Z" fill="white"/>
  <path d="M24 16C19.5817 16 16 19.5817 16 24C16 28.4183 19.5817 32 24 32C28.4183 32 32 28.4183 32 24C32 19.5817 28.4183 16 24 16ZM24 30C20.6863 30 18 27.3137 18 24C18 20.6863 20.6863 18 24 18C27.3137 18 30 20.6863 30 24C30 27.3137 27.3137 30 24 30Z" fill="white"/>
  <circle cx="24" cy="24" r="4" fill="white"/>
</svg>
